<svg width="215" height="33" viewBox="0 0 215 33" fill="none" xmlns="http://www.w3.org/2000/svg">
<path d="M108.499 0V4.76079H113.696V0H108.499ZM108.499 6.80231V23.8067H113.696V6.80231H108.499Z" fill="white"/>
<path d="M77.0151 6.25659C71.6142 6.25659 67.9824 9.72524 67.9824 15.3015C67.9824 20.8778 71.617 24.3465 77.0151 24.3465C82.4132 24.3465 86.0478 20.8778 86.0478 15.3015C86.0478 9.72524 82.4132 6.25659 77.0151 6.25659ZM77.0151 19.9604C75.0451 19.9604 73.2457 18.7702 73.2457 15.3015C73.2457 11.8329 75.0451 10.6096 77.0151 10.6096C78.9851 10.6096 80.7844 11.8687 80.7844 15.3015C80.7844 18.7344 78.9851 19.9604 77.0151 19.9604Z" fill="white"/>
<path d="M99.2957 6.29262C96.2389 6.29262 94.1672 8.43607 93.5894 10.4748H93.3858V0H88.1885V23.8067H93.3858L93.317 20.203H93.5206C93.9966 22.1426 95.6611 24.3522 99.0563 24.3522C103.472 24.3522 106.562 20.6797 106.562 15.4423C106.562 10.2048 103.709 6.29537 99.2929 6.29537L99.2957 6.29262ZM97.2239 19.9964C95.1521 19.9964 93.251 18.7043 93.251 15.3706C93.251 12.037 95.1521 10.6429 97.2239 10.6429C99.2957 10.6429 101.233 11.9681 101.233 15.3706C101.233 18.7732 99.3644 19.9964 97.2239 19.9964Z" fill="white"/>
<path d="M122.599 19.5198C121.513 19.5198 121.138 18.9081 121.138 17.8199V0H116.043V18.7043C116.043 22.1399 117.809 23.8067 121.24 23.8067H123.584V19.5225H122.599V19.5198Z" fill="white"/>
<path d="M142.602 14.6238C142.602 8.97862 138.8 6.25659 133.839 6.25659C128.609 6.25659 124.807 9.55443 124.807 15.3015C124.807 21.5942 129.256 24.3465 133.671 24.3465C138.087 24.3465 141.719 22.4069 142.399 18.2247H137.372C136.896 19.7896 135.402 20.3323 133.941 20.3323C131.971 20.3323 129.831 19.3791 129.765 16.4559H142.432C142.534 16.0151 142.602 15.4365 142.602 14.6183V14.6238ZM137.372 13.4666H129.866C129.968 11.359 131.564 9.998 133.704 9.998C135.845 9.998 137.441 11.2901 137.372 13.4666Z" fill="white"/>
<path d="M153.495 19.9634C151.525 19.9634 149.725 18.7732 149.725 15.3046C149.725 11.8359 151.525 10.6127 153.495 10.6127C155.09 10.6127 156.482 11.2601 156.857 13.6047H162.222C161.883 8.46922 158.282 6.25964 153.495 6.25964C148.094 6.25964 144.462 9.7283 144.462 15.3046C144.462 20.8809 148.096 24.3495 153.495 24.3495C158.282 24.3495 161.883 22.14 162.222 17.0045H156.857C156.482 19.3518 155.09 19.9634 153.495 19.9634Z" fill="white"/>
<path d="M181.6 19.6576C180.615 19.6576 180.309 19.3187 180.309 18.3985V12.7203C180.309 8.81085 177.728 6.25964 172.465 6.25964C166.896 6.25964 163.941 8.91279 163.941 12.4503H169.342C169.342 10.9543 170.564 10.2738 172.297 10.2738C174.267 10.2738 175.115 11.4971 175.115 13.1997V13.7425L170.088 14.1171C166.453 14.3899 164.145 16.0209 164.145 19.2857C164.145 22.2446 165.98 24.2173 169.51 24.2173C173.04 24.2173 174.773 22.2446 175.249 20.4428H175.453V20.5448C175.453 22.7213 176.914 23.8095 179.731 23.8095H182.381V19.6604H181.6V19.6576ZM171.785 20.6109C169.917 20.6109 169.477 19.7265 169.477 18.8091C169.477 17.8916 170.019 17.1422 172.193 16.9384L175.181 16.6656C175.181 19.3518 173.618 20.6109 171.785 20.6109Z" fill="white"/>
<path d="M194.339 6.49658C190.908 6.49658 190.162 9.01197 189.551 11.9048H189.381L189.516 6.8024H184.318V23.8068H189.516V17.685C189.516 12.1418 191.554 11.869 194.339 11.869H195.833V6.63158C195.393 6.5627 194.917 6.49658 194.339 6.49658Z" fill="white"/>
<path d="M214.77 14.6238C214.77 8.97862 210.968 6.25659 206.007 6.25659C200.777 6.25659 196.975 9.55443 196.975 15.3015C196.975 21.5942 201.424 24.3465 205.839 24.3465C210.255 24.3465 213.887 22.4069 214.567 18.2247H209.54C209.064 19.7896 207.57 20.3323 206.109 20.3323C204.139 20.3323 201.999 19.3791 201.933 16.4559H214.6C214.702 16.0151 214.77 15.4365 214.77 14.6183V14.6238ZM209.54 13.4666H202.034C202.136 11.359 203.732 9.998 205.872 9.998C208.013 9.998 209.609 11.2901 209.54 13.4666Z" fill="white"/>
<path d="M66.3488 23.8037H61.9439L61.4651 17.186L61.2588 14.3318V14.2629H61.0552L61.0332 14.3483L60.78 15.3649L58.6808 23.801H53.954L51.8547 15.3622L51.6016 14.3483L51.5795 14.2629H51.3759V14.329L51.1696 17.1833L50.6909 23.801H46.2859L46.9243 15.8057L47.6864 6.2511H53.8384L53.9512 6.70293L56.1908 15.7065L56.2128 15.792H56.4164L56.4384 15.7065L58.6808 6.6864L58.7881 6.2511H64.9401L65.7022 15.8057L66.3405 23.801L66.3488 23.8037Z" fill="white"/>
<path d="M34.7272 23.7877C34.4961 24.0908 34.2595 24.3883 34.0119 24.6776C33.9513 24.7492 33.8908 24.8209 33.8275 24.8925C33.7725 24.9531 33.7202 25.0165 33.6652 25.0771C33.4534 25.314 33.236 25.5482 33.0131 25.7741C32.9636 25.8265 32.9141 25.876 32.8618 25.9256C32.8123 25.9752 32.76 26.0276 32.7105 26.0772C32.4821 26.3003 32.251 26.518 32.0144 26.7301C31.9539 26.7852 31.8906 26.8403 31.8301 26.8927C31.7585 26.9533 31.687 27.0167 31.6155 27.0773C31.3266 27.3225 31.0294 27.5622 30.7268 27.7936C30.4929 27.9727 30.2535 28.1462 30.0114 28.3143C29.8601 28.419 29.7088 28.5237 29.5547 28.6229C29.4089 28.7193 29.2603 28.8157 29.109 28.9094C29.0182 28.9673 28.9246 29.0251 28.8311 29.0802C28.6605 29.1849 28.4872 29.2841 28.3111 29.3833C28.2093 29.4411 28.1102 29.4962 28.0084 29.5513C27.692 29.7221 27.3729 29.8875 27.0482 30.0417C27.029 30.05 27.0125 30.0583 26.9932 30.0665C26.6685 30.2208 26.3411 30.3668 26.0082 30.5046C25.8706 30.5597 25.7331 30.6148 25.5955 30.6699C25.2131 30.8187 24.8224 30.9564 24.4289 31.0832C24.3216 31.1162 24.2143 31.152 24.107 31.1823C24.074 31.1934 24.041 31.2016 24.008 31.2127C23.9475 31.2319 23.8842 31.2485 23.8236 31.2678C23.3944 31.3917 22.9597 31.5019 22.5195 31.5984C22.3489 31.6369 22.1783 31.67 22.005 31.7058C21.7574 31.7526 21.507 31.7967 21.2539 31.8353C21.1081 31.8573 20.9622 31.8794 20.8164 31.8987C20.5468 31.9345 20.2744 31.9648 20.002 31.9923C19.6801 32.0226 19.3527 32.0474 19.0253 32.0612C19.0088 32.0612 18.995 32.0612 18.9785 32.0612C18.6539 32.075 18.3292 32.0833 18.0018 32.0833C17.6744 32.0833 17.347 32.075 17.0251 32.0612C17.0086 32.0612 16.9948 32.0612 16.9783 32.0612C16.6509 32.0447 16.3262 32.0226 16.0016 31.9923C15.7292 31.9675 15.4568 31.9345 15.1872 31.8987C15.0413 31.8794 14.8955 31.8573 14.7497 31.8353C14.4993 31.7967 14.249 31.7526 13.9986 31.7058C13.8445 31.6755 13.6932 31.6452 13.5419 31.6121C13.5226 31.6066 13.5033 31.6039 13.4841 31.5984C13.0439 31.5019 12.6092 31.3917 12.1799 31.2678C12.1194 31.2512 12.0561 31.2319 11.9956 31.2127C11.9626 31.2016 11.9296 31.1934 11.8966 31.1823C11.7893 31.1493 11.682 31.1162 11.5747 31.0832C11.1812 30.9564 10.7905 30.8187 10.4081 30.6699C10.2705 30.6148 10.1329 30.5597 9.99538 30.5046C9.66247 30.3668 9.33231 30.2208 9.0104 30.0665C8.99114 30.0583 8.97463 30.05 8.95537 30.0417C8.63071 29.8875 8.30881 29.7221 7.99515 29.5513C7.89335 29.4962 7.79155 29.4411 7.69251 29.3833C7.51642 29.2841 7.34308 29.1822 7.1725 29.0802C6.92763 28.9342 6.68826 28.7799 6.4489 28.6229C6.29482 28.5209 6.1435 28.419 5.99217 28.3143C5.75006 28.1462 5.51069 27.9699 5.27682 27.7936C4.97418 27.5622 4.67978 27.3252 4.38814 27.0773C4.3166 27.0167 4.24507 26.9533 4.17353 26.8927C4.113 26.8376 4.04972 26.7852 3.98919 26.7301C3.75258 26.518 3.51871 26.3003 3.2931 26.0772C3.24083 26.0276 3.1913 25.978 3.14178 25.9256C3.09226 25.876 3.03998 25.8237 2.99046 25.7741C2.7676 25.5454 2.55024 25.314 2.33839 25.0771C2.28336 25.0165 2.22833 24.9531 2.17606 24.8925C2.11278 24.8209 2.05225 24.7492 1.99172 24.6776C1.74685 24.3883 1.50748 24.0908 1.27637 23.7877L3.99195 21.0684L5.33185 19.7267C5.54095 20.0325 5.76106 20.3301 5.99217 20.6193C6.05821 20.702 6.12424 20.7847 6.19302 20.8673C6.24805 20.9362 6.30583 21.0023 6.36361 21.0684C6.61398 21.3605 6.87536 21.6415 7.14774 21.9142C7.42012 22.187 7.70076 22.4487 7.9924 22.6994C8.05843 22.7573 8.12722 22.8124 8.19325 22.8703C8.27579 22.9391 8.35833 23.0053 8.44087 23.0714C8.72976 23.3028 9.02691 23.5232 9.33231 23.7326C9.54966 23.8814 9.76977 24.0246 9.99263 24.1624C10.1825 24.2781 10.3751 24.3911 10.5704 24.4985C10.9446 24.7079 11.3298 24.898 11.7232 25.0771C11.7865 25.1046 11.8498 25.1322 11.9131 25.1597C11.9406 25.1707 11.9681 25.1845 11.9956 25.1955C12.0286 25.2093 12.0644 25.2231 12.0974 25.2396C12.1304 25.2534 12.1662 25.2672 12.1992 25.281C12.235 25.2947 12.2707 25.3085 12.3065 25.3223C12.3175 25.3278 12.3313 25.3305 12.3423 25.3361C12.3863 25.3526 12.4303 25.3719 12.4743 25.3884C12.4909 25.3939 12.5074 25.4022 12.5239 25.4077C12.5596 25.4215 12.5954 25.4352 12.6312 25.449C12.6669 25.4628 12.7027 25.4766 12.7385 25.4903C12.766 25.5014 12.7935 25.5096 12.821 25.5206C12.854 25.5344 12.8898 25.5454 12.9228 25.5565C12.9696 25.573 13.0191 25.5895 13.0659 25.6061C13.1649 25.6391 13.2667 25.6722 13.3658 25.7052C13.4043 25.7163 13.4401 25.73 13.4786 25.7411C13.4978 25.7466 13.5171 25.7521 13.5364 25.7576C13.5749 25.7686 13.6107 25.7796 13.6492 25.7906C13.6822 25.8017 13.7152 25.8099 13.7482 25.8182C13.7565 25.8182 13.7675 25.8237 13.7757 25.8265C13.8087 25.8347 13.8418 25.8457 13.8775 25.854C13.916 25.865 13.9546 25.876 13.9931 25.8843C14.0591 25.9008 14.1224 25.9201 14.1884 25.9367C14.238 25.9504 14.2875 25.9615 14.3343 25.9725C14.381 25.9835 14.4333 25.9973 14.4828 26.0083C14.5158 26.0166 14.5489 26.0248 14.5819 26.0303C14.6479 26.0469 14.7139 26.0606 14.78 26.0744C14.8378 26.0882 14.8983 26.0992 14.9561 26.1102C14.9863 26.1157 15.0166 26.1213 15.0469 26.1268C15.3578 26.1874 15.6742 26.2397 15.9933 26.281C16.2299 26.3114 16.4693 26.3361 16.7087 26.3582C16.9095 26.3747 17.1131 26.3885 17.3167 26.3968C17.5423 26.4078 17.7679 26.4105 17.9935 26.4105C18.2219 26.4105 18.4475 26.405 18.6704 26.3968C18.874 26.3885 19.0748 26.3747 19.2784 26.3582C19.5178 26.3389 19.7572 26.3141 19.9938 26.281C20.3129 26.2397 20.6266 26.1874 20.9402 26.1268C20.9705 26.1213 21.0008 26.1157 21.031 26.1075C21.0613 26.102 21.0888 26.0965 21.1191 26.0882C21.1493 26.0827 21.1796 26.0772 21.2099 26.0689C21.2759 26.0551 21.3419 26.0414 21.408 26.0248C21.5565 25.9918 21.7024 25.9559 21.8482 25.9174C21.8977 25.9036 21.9472 25.8926 21.994 25.8788C22.038 25.8678 22.0793 25.854 22.1233 25.843C22.2911 25.7962 22.4562 25.7466 22.6213 25.6942C22.8964 25.6061 23.1688 25.5124 23.4385 25.4104C23.4687 25.3994 23.4962 25.3884 23.5265 25.3774C23.6145 25.3443 23.7026 25.3085 23.7906 25.2727C23.8594 25.2451 23.9282 25.2148 23.9942 25.1873C24.0217 25.1763 24.0493 25.1625 24.0768 25.1515C24.1401 25.1239 24.2033 25.0964 24.2666 25.0688C24.6601 24.8925 25.0425 24.6996 25.4167 24.493C25.612 24.3856 25.8046 24.2726 25.9917 24.1569C26.2146 24.0191 26.4347 23.8759 26.652 23.7271C26.9574 23.5177 27.2546 23.2973 27.5435 23.0659C27.626 22.9997 27.7085 22.9336 27.7911 22.8647C27.8599 22.8096 27.9259 22.7518 27.9919 22.6939C28.2836 22.4432 28.567 22.1815 28.8366 21.9087C29.1062 21.636 29.3704 21.355 29.6207 21.0629C29.6785 20.9968 29.7335 20.9307 29.7913 20.8618C29.8601 20.7791 29.9261 20.6965 29.9922 20.6138C30.2233 20.3246 30.4434 20.027 30.6525 19.7212L30.9937 20.0628L32.9939 22.0658L33.0957 22.1677L33.9954 23.0686L34.7107 23.7849L34.7272 23.7877Z" fill="white"/>
<path d="M36.0124 11.04L32.0119 15.0459L25.0097 8.0342L18.0076 15.0459L11.0026 8.0342L4.00046 15.0459L0 11.04L11.0026 0.0196533L18.0076 7.03135L25.0097 0.0196533L36.0124 11.04Z" fill="white"/>
</svg>
